<?xml version="1.0" encoding="utf-8"?>
<!-- Generator: Adobe Illustrator 19.2.1, SVG Export Plug-In . SVG Version: 6.00 Build 0)  -->
<svg version="1.1" id="layer" xmlns="http://www.w3.org/2000/svg" xmlns:xlink="http://www.w3.org/1999/xlink" x="0px" y="0px"
	 viewBox="0 0 652 652" style="enable-background:new 0 0 652 652;" xml:space="preserve">
<style type="text/css">
	.st0{fill:#171717;}
	.st1{fill:url(#Tracé_6367_1_);}
</style>
<path class="st0" d="M229.7,323.1l22.3-34.7H271v0.7l-33.5,48.6v34.7h-15.8v-34.7l-32.3-48.6v-0.7h18.8L229.7,323.1z M328,356.6
	h-43.9l-7.2,15.8h-17.1l37.6-83.9h17.3l37.6,83.9H335L328,356.6z M306,306.1l-15.6,35.7h31.2L306,306.1z M410,308.7
	c-4.7-6.1-12.1-9.6-19.9-9.4c-11.7,0-17.4,4.9-17.4,11.1c0,7.3,8.6,9.4,18.7,10.6c17.5,2.2,33.8,6.7,33.8,26.7
	c0,18.7-16.5,26.7-35.3,26.7c-17.1,0-30.3-5.3-36.6-20.6l13.2-6.8c4.4,8.9,13.8,14.2,23.6,13.3c10,0,19.3-3.5,19.3-12.6
	c0-7.9-8.3-11.1-19.4-12.4c-17.1-2-33-6.6-33-25.4c0-17.3,17-24.3,32.5-24.5c13.1,0,26.6,3.7,33,16.7L410,308.7z M489.3,308.7
	c-4.7-6.1-12.1-9.6-19.9-9.4c-11.7,0-17.4,4.9-17.4,11.1c0,7.3,8.6,9.4,18.7,10.6c17.5,2.2,33.8,6.7,33.8,26.7
	c0,18.7-16.5,26.7-35.3,26.7c-17.1,0-30.3-5.3-36.6-20.6l13.2-6.8c4.4,8.9,13.8,14.2,23.6,13.3c10,0,19.3-3.5,19.3-12.6
	c0-7.9-8.3-11.1-19.4-12.4c-17.1-2-33-6.6-33-25.4c0-17.3,17-24.3,32.5-24.5c13.1,0,26.6,3.7,33,16.7L489.3,308.7z M516.8,372.4
	v-83.9h15.7v83.9H516.8z M621.9,372.4h-18.8l-24.5-28.1h-15.2v28.1h-15.8v-84.1c13.3,0,26.6,0.1,39.9,0.1
	c19.8,0.1,30.2,13.3,30.2,27.8c0.9,13-8.3,24.5-21.2,26.4l25.4,28.7L621.9,372.4z M563.4,303.2v26.9h24.1
	c7.4,0.5,13.9-5.1,14.4-12.5c0.5-7.4-5.1-13.9-12.5-14.4c-0.6,0-1.3,0-1.9,0H563.4z M103.1,375.5c-5.1,1.8-10.7,1.8-15.7,0
	l-65.4-23.8v28l65.4,23.8c5.1,1.8,10.7,1.8,15.7,0l65.4-23.8v-28L103.1,375.5z"/>
<linearGradient id="Tracé_6367_1_" gradientUnits="userSpaceOnUse" x1="-142.6815" y1="591.5486" x2="-144.2149" y2="597.2613" gradientTransform="matrix(24.383 0 0 -20.9367 3577.5984 12733.6445)">
	<stop  offset="0" style="stop-color:#FF8500"/>
	<stop  offset="1" style="stop-color:#FEB60F"/>
</linearGradient>
<path id="Tracé_6367" class="st1" d="M104.8,242.1c-3.5-5.3-10.7-6.7-16-3.2c-1.3,0.8-2.3,1.9-3.2,3.2l-63.7,95.6l65.4,23.8
	c5.1,1.8,10.7,1.8,15.7,0l65.4-23.8L104.8,242.1z"/>
</svg>
